Coordinates
version=1
nRows=17
nColumns=40
inDegrees=yes

Units are S.I. units (second, meters, Newtons, ...)
Angles are in degrees.

endheader
time	pelvis_tilt	pelvis_list	pelvis_rotation	pelvis_tx	pelvis_ty	pelvis_tz	hip_flexion_r	hip_adduction_r	hip_rotation_r	knee_angle_r	knee_angle_r_beta	ankle_angle_r	subtalar_angle_r	mtp_angle_r	hip_flexion_l	hip_adduction_l	hip_rotation_l	knee_angle_l	knee_angle_l_beta	ankle_angle_l	subtalar_angle_l	mtp_angle_l	lumbar_extension	lumbar_bending	lumbar_rotation	arm_flex_r	arm_add_r	arm_rot_r	elbow_flex_r	pro_sup_r	wrist_flex_r	wrist_dev_r	arm_flex_l	arm_add_l	arm_rot_l	elbow_flex_l	pro_sup_l	wrist_flex_l	wrist_dev_l
     47.08000000	     -5.57171660	     -5.06719427	      0.88698863	      0.79191725	      0.92353521	      0.47467722	     -1.84439099	      0.06115688	    -16.98391228	     17.57869823	     17.57869823	     15.98301185	      9.28586741	     -6.48157868	     27.64337911	     -6.69063172	     -1.77737105	     25.54325399	     25.54325399	      6.99822294	    -14.66189377	      9.68429474	     -8.35317800	      7.94859399	      3.50268895	     28.54155471	    -17.46263218	     -8.66331113	     82.69062840	     44.78559995	      0.00000000	      0.00000000	    -12.18999791	     -8.25516260	     -1.94210565	     40.63381058	     46.05154527	      0.00000000	      0.00000000
     47.09342857	     -5.60709887	     -5.18609405	      0.90093265	      0.79225991	      0.92461629	      0.47109149	     -1.80476263	     -0.25856726	    -16.97169322	     18.41526748	     18.41526748	     15.51240116	      9.25952727	     -6.58164749	     27.09496959	     -6.57900763	     -1.78560661	     25.41609774	     25.41609774	      7.41370100	    -14.60311778	      9.53863772	     -8.45059319	      8.20445199	      3.25529053	     27.29112038	    -17.39318859	     -8.68923614	     81.88837955	     44.80954663	      0.00000000	      0.00000000	    -11.45622542	     -8.78752597	     -2.16357083	     41.09677919	     46.08740628	      0.00000000	      0.00000000
     47.10685714	     -5.89892519	     -4.98593504	      0.67592165	      0.79222268	      0.92515344	      0.46760435	     -0.93828123	     -1.14863878	    -16.87424056	     20.22611539	     20.22611539	     14.70849653	      9.03428156	     -8.53224444	     26.69068031	     -6.23099232	     -2.21112441	     25.12187663	     25.12187663	      7.72922173	    -14.45234407	      9.20117929	     -8.26948923	      7.94015794	      3.59848789	     26.27823138	    -17.30272549	    -10.54856994	     78.73025827	     44.99436645	      0.00000000	      0.00000000	    -11.33444981	     -9.15115889	     -3.52065251	     44.01085929	     46.25113089	      0.00000000	      0.00000000
     47.12028571	     -6.06027535	     -4.96036502	      0.54667167	      0.79215197	      0.92580588	      0.46423129	     -0.08348558	     -1.81243781	    -16.59407023	     22.26322651	     22.26322651	     14.08286896	      8.41788811	     -9.39511238	     26.20861192	     -6.04896484	     -2.49412579	     24.88686329	     24.88686329	      8.14406732	    -14.18771019	      8.94760544	     -8.27526126	      7.93730800	      3.77030490	     24.85642882	    -17.60516829	    -10.67918529	     77.12645345	     45.05108440	      0.00000000	      0.00000000	    -10.55221163	     -9.61759902	     -4.04430064	     45.06136145	     46.32071997	      0.00000000	      0.00000000
     47.13371429	     -6.17979627	     -4.92794726	      0.41436715	      0.79199353	      0.92638163	      0.46099517	      0.98698698	     -2.51234559	    -16.16072717	     24.73336690	     24.73336690	     13.24759823	      7.41716717	    -10.47265481	     25.70058852	     -5.88389755	     -2.84000432	     24.67952034	     24.67952034	      8.55984588	    -13.91971344	      8.64848246	     -8.28534653	      7.91945825	      3.91620194	     23.46642722	    -17.76902673	    -10.97120582	     75.29394920	     45.11978243	      0.00000000	      0.00000000	     -9.77838970	    -10.12765144	     -4.60488677	     46.36263446	     46.39533307	      0.00000000	      0.00000000
     47.14714286	     -6.33955479	     -4.93753274	      0.26120215	      0.79153874	      0.92681110	      0.45800370	      2.40458462	     -3.14919243	    -15.47400086	     27.63725877	     27.63725877	     12.02806928	      5.76419803	    -12.02708549	     25.28930647	     -5.79548660	     -3.20469825	     24.52093918	     24.52093918	      8.85864411	    -13.58292960	      8.27238742	     -8.24390062	      7.86288759	      4.04404728	     22.15814191	    -17.78637104	    -11.43040494	     72.96798483	     45.21147831	      0.00000000	      0.00000000	     -9.10633623	    -10.65190647	     -5.29194596	     48.12636399	     46.48433648	      0.00000000	      0.00000000
     47.16057143	     -6.34401034	     -4.91887145	      0.14433584	      0.79102873	      0.92731920	      0.45505633	      3.84974780	     -3.83182670	    -14.78861083	     30.85004904	     30.85004904	     10.75231890	      4.11959996	    -13.13795053	     24.70876354	     -5.65631283	     -3.50558062	     24.35213411	     24.35213411	      9.29849534	    -13.25795975	      7.90278929	     -8.47741164	      7.84867154	      3.99345591	     20.85160997	    -17.64514071	    -11.60380342	     71.14425653	     45.27462681	      0.00000000	      0.00000000	     -8.25597653	    -11.27788084	     -5.80487606	     49.43750531	     46.55379171	      0.00000000	      0.00000000
     47.17400000	     -6.46821191	     -5.07060748	     -0.02469371	      0.79031839	      0.92755409	      0.45258582	      5.50829182	     -4.06542777	    -13.56625367	     33.81954272	     33.81954272	      7.68944350	      0.54526451	    -18.20305725	     24.27406325	     -5.75602873	     -3.84942560	     24.16546395	     24.16546395	      9.45519609	    -12.95718661	      6.59857458	     -8.50215380	      7.86844498	      2.97202787	     21.15754031	    -16.59660472	    -11.65420843	     65.83843732	     45.46099420	      0.00000000	      0.00000000	     -8.93282983	    -11.77338888	     -7.88827265	     53.31767680	     46.77086910	      0.00000000	      0.00000000
     47.18742857	     -6.56463976	     -5.08186451	     -0.20607659	      0.78942207	      0.92774705	      0.45022187	      7.59238436	     -4.55252827	    -12.47902006	     37.72049723	     37.72049723	      6.18906081	     -1.87955577	    -18.16629761	     23.84268786	     -5.71441412	     -4.21452328	     24.04511236	     24.04511236	      9.87993333	    -12.59540843	      6.19680287	     -8.60437008	      7.80798304	      3.17476354	     19.56500304	    -16.70521024	    -11.56846663	     63.95384993	     45.51533322	      0.00000000	      0.00000000	     -7.74523367	    -12.40910879	     -8.32243800	     54.44271153	     46.83139511	      0.00000000	      0.00000000
     47.20085714	     -6.49405655	     -4.93568289	     -0.37687310	      0.78850186	      0.92803591	      0.44793484	      9.62735147	     -5.25372514	    -11.60006024	     41.73489632	     41.73489632	      4.61548735	     -3.70146293	    -18.02446108	     23.22437106	     -5.50610213	     -4.64281171	     23.92057109	     23.92057109	     10.30948897	    -12.31534951	      5.87381345	     -8.92183391	      7.58117453	      3.09259225	     18.08237565	    -16.52036039	    -11.43531846	     62.48694591	     45.55342900	      0.00000000	      0.00000000	     -6.54720296	    -13.19896131	     -8.65980172	     55.32764361	     46.88152717	      0.00000000	      0.00000000
     47.21428571	     -6.57820952	     -4.94605426	     -0.62050566	      0.78751497	      0.92809673	      0.44611410	     11.94254275	     -5.50200774	    -10.33821872	     45.66541601	     45.66541601	      2.98812082	     -5.98409736	    -17.25938042	     22.76891637	     -5.49868589	     -5.00896232	     23.78441225	     23.78441225	     10.74309297	    -12.00674788	      5.44160218	     -8.94376281	      7.45330193	      3.26563906	     16.46173227	    -16.49156278	    -11.32186754	     60.36700282	     45.61419293	      0.00000000	      0.00000000	     -5.37403511	    -13.87852279	     -8.95067501	     56.53692038	     46.93164816	      0.00000000	      0.00000000
     47.22771429	     -6.55845610	     -5.06849666	     -0.83520766	      0.78643994	      0.92826085	      0.44464180	     14.25882647	     -5.48280752	     -9.15168917	     49.64777975	     49.64777975	      2.49420888	     -7.54465094	    -13.07182466	     22.25726584	     -5.69325317	     -5.57385976	     23.71178421	     23.71178421	     10.90472548	    -11.42896105	      4.08620193	     -9.08723681	      7.41649113	      2.69662539	     16.49012626	    -15.78138556	    -11.03698505	     54.87014405	     45.78465842	      0.00000000	      0.00000000	     -5.07151667	    -14.99493418	     -8.90233191	     58.99570961	     46.96826756	      0.00000000	      0.00000000
     47.24114286	     -6.50410921	     -4.92326544	     -1.02858476	      0.78546395	      0.92846117	      0.44303305	     16.40725168	     -5.81681293	     -8.26549709	     53.09352141	     53.09352141	      1.09562993	     -8.87700749	    -12.42064412	     21.65282986	     -5.48504317	     -5.85910625	     23.55678245	     23.55678245	     11.28843481	    -11.34732941	      3.86406856	     -9.29339803	      7.16326966	      2.61657033	     14.72621859	    -15.54721798	    -10.74299837	     53.56975163	     45.80746791	      0.00000000	      0.00000000	     -3.72634737	    -15.76876111	     -9.38636532	     59.80042065	     47.02981471	      0.00000000	      0.00000000
     47.25457143	     -6.46152275	     -5.03059721	     -1.23738181	      0.78451848	      0.92872802	      0.44183656	     18.66785756	     -5.69915887	     -7.38120853	     56.54179933	     56.54179933	      1.63840982	     -9.09276122	     -6.67559967	     21.04392625	     -5.61569295	     -6.24068371	     23.35998077	     23.35998077	     11.45021352	    -11.02196335	      2.83061861	     -9.41264277	      7.10268371	      2.40856790	     14.07044431	    -15.33603058	     -9.69430730	     49.10295409	     45.89978388	      0.00000000	      0.00000000	     -2.84233263	    -16.55259073	     -9.67110801	     61.35197902	     47.09193958	      0.00000000	      0.00000000
     47.26800000	     -6.34289893	     -4.95966377	     -1.38640775	      0.78369205	      0.92910989	      0.44057719	     20.57216280	     -5.80080397	     -6.78070220	     59.13818572	     59.13818572	      0.74139682	     -9.85182086	     -6.36279579	     20.34032913	     -5.48204443	     -6.46022609	     23.14939986	     23.14939986	     11.78906459	    -10.91888435	      2.68918764	     -9.63289266	      6.92099723	      2.20621687	     12.24479039	    -14.98270123	     -9.43250000	     47.96934205	     45.91667520	      0.00000000	      0.00000000	     -1.54897160	    -17.35302010	    -10.13631600	     62.10354252	     47.15012030	      0.00000000	      0.00000000
     47.28142857	     -6.24638094	     -5.04087482	     -1.60917927	      0.78293847	      0.92956640	      0.43960747	     22.48229556	     -5.62409752	     -6.23397725	     61.42652611	     61.42652611	      1.07105185	     -9.93879995	     -3.32828049	     19.62080042	     -5.58202036	     -6.85737097	     22.89007641	     22.89007641	     12.05081661	    -10.57294794	      1.99019701	     -9.80608633	      6.86255520	      2.41868359	     11.00363478	    -14.96416112	     -8.56372325	     44.32968936	     45.98843483	      0.00000000	      0.00000000	     -0.22000259	    -17.92443402	    -10.25828125	     63.45867763	     47.19667415	      0.00000000	      0.00000000
     47.29485714	     -6.07802277	     -5.14929154	     -1.68157761	      0.78235028	      0.93014684	      0.43861766	     24.02236388	     -5.51470021	     -6.13352656	     62.93708748	     62.93708748	      0.76915261	    -10.22080937	     -3.31813283	     18.82473799	     -5.61108485	     -6.87064528	     22.61379327	     22.61379327	     12.44300931	    -10.47834613	      1.88196066	    -10.05425809	      6.91843112	      1.89194310	      9.30338294	    -14.41713714	     -8.36273020	     43.48120477	     45.99802747	      0.00000000	      0.00000000	      0.77394826	    -18.82927375	    -10.66422959	     63.94112529	     47.24319301	      0.00000000	      0.00000000
